<?xml version="1.0" standalone="no"?><svg xmlns="http://www.w3.org/2000/svg" viewBox="0 0 1440 320"><path fill="#181818" fill-opacity="1" d="M0,192L18.5,202.7C36.9,213,74,235,111,234.7C147.7,235,185,213,222,192C258.5,171,295,149,332,144C369.2,139,406,149,443,165.3C480,181,517,203,554,176C590.8,149,628,75,665,80C701.5,85,738,171,775,208C812.3,245,849,235,886,224C923.1,213,960,203,997,208C1033.8,213,1071,235,1108,213.3C1144.6,192,1182,128,1218,106.7C1255.4,85,1292,107,1329,144C1366.2,181,1403,235,1422,261.3L1440,288L1440,0L1421.5,0C1403.1,0,1366,0,1329,0C1292.3,0,1255,0,1218,0C1181.5,0,1145,0,1108,0C1070.8,0,1034,0,997,0C960,0,923,0,886,0C849.2,0,812,0,775,0C738.5,0,702,0,665,0C627.7,0,591,0,554,0C516.9,0,480,0,443,0C406.2,0,369,0,332,0C295.4,0,258,0,222,0C184.6,0,148,0,111,0C73.8,0,37,0,18,0L0,0Z"></path></svg>